<svg xmlns="http://www.w3.org/2000/svg" version="1.0" width="521.000000pt" height="521.000000pt" viewBox="0 0 521.000000 521.000000" preserveAspectRatio="xMidYMid meet">

<g transform="translate(0.000000,521.000000) scale(0.100000,-0.100000)" fill="#FE4365" stroke="none">
<path d="M343 4786 c-88 -28 -177 -107 -216 -194 -30 -66 -30 -198 -1 -262 12 -25 121 -184 242 -354 l221 -309 -53 -61 c-170 -195 -282 -411 -343 -666 -35 -146 -44 -427 -18 -581 105 -630 609 -1139 1233 -1243 247 -41 494 -24 720 50 107 36 291 125 368 179 36 25 70 45 75 45 6 0 29 -13 52 -29 260 -177 624 -269 949 -241 124 11 294 47 382 82 27 10 52 15 56 11 4 -4 114 -154 245 -333 130 -179 254 -342 274 -363 134 -142 351 -140 485 3 70 75 90 127 90 230 0 107 -13 137 -126 290 -305 413 -400 545 -405 556 -3 7 20 44 50 81 193 242 297 499 327 808 50 511 -166 1006 -584 1339 -188 149 -470 266 -715 297 -275 33 -613 -66 -919 -272 -57 -38 -108 -69 -113 -69 -5 0 -42 24 -82 54 -140 105 -344 197 -535 243 -131 31 -409 43 -544 24 -73 -11 -236 -49 -278 -65 -17 -7 -29 9 -296 383 -176 248 -218 300 -270 331 -74 46 -189 61 -271 36z m1527 -1382 c137 -43 360 -190 427 -282 15 -20 66 -77 113 -127 47 -49 187 -205 310 -345 365 -414 399 -446 552 -507 209 -85 489 -43 658 97 l35 28 -21 24 c-12 13 -119 136 -240 273 -439 502 -517 591 -560 637 -24 26 -44 50 -44 55 0 11 111 77 195 116 79 38 195 67 264 67 249 0 547 -226 657 -498 64 -160 80 -332 45 -492 -80 -363 -379 -622 -757 -655 -201 -18 -400 58 -612 234 -24 20 -223 237 -443 482 -278 311 -417 459 -459 488 -70 49 -145 84 -228 106 -78 20 -249 20 -327 -1 -84 -21 -194 -76 -243 -121 l-42 -38 226 -255 c125 -140 334 -376 465 -524 132 -148 239 -273 239 -278 0 -14 -125 -68 -207 -88 -419 -108 -857 128 -993 533 -101 299 -32 617 183 844 205 217 539 311 807 227z" fill="#FE4365"/>
</g>
</svg>